<svg xmlns="http://www.w3.org/2000/svg" width="199.94" height="35" viewBox="0 0 199.94 35"><rect class="svg__rect" x="0" y="0" width="115.31" height="35" fill="#EE6A1A"/><rect class="svg__rect" x="113.31" y="0" width="86.63" height="35" fill="#DC5402"/><path class="svg__text" d="M15.69 22L14.22 22L14.22 13.47L16.14 13.47L18.60 20.01L21.06 13.47L22.97 13.47L22.97 22L21.49 22L21.49 19.19L21.64 15.43L19.12 22L18.06 22L15.55 15.43L15.69 19.19L15.69 22ZM28.49 22L26.95 22L30.17 13.47L31.50 13.47L34.73 22L33.18 22L32.49 20.01L29.18 20.01L28.49 22ZM30.83 15.28L29.60 18.82L32.07 18.82L30.83 15.28ZM41.14 22L38.69 22L38.69 13.47L41.21 13.47Q42.34 13.47 43.21 13.97Q44.09 14.48 44.57 15.40Q45.05 16.33 45.05 17.52L45.05 17.52L45.05 17.95Q45.05 19.16 44.57 20.08Q44.08 21.00 43.19 21.50Q42.30 22 41.14 22L41.14 22ZM40.17 14.66L40.17 20.82L41.14 20.82Q42.30 20.82 42.93 20.09Q43.55 19.36 43.56 17.99L43.56 17.99L43.56 17.52Q43.56 16.13 42.96 15.40Q42.35 14.66 41.21 14.66L41.21 14.66L40.17 14.66ZM55.09 22L49.51 22L49.51 13.47L55.05 13.47L55.05 14.66L51.00 14.66L51.00 17.02L54.50 17.02L54.50 18.19L51.00 18.19L51.00 20.82L55.09 20.82L55.09 22ZM66.65 22L64.68 13.47L66.15 13.47L67.47 19.88L69.10 13.47L70.34 13.47L71.96 19.89L73.27 13.47L74.74 13.47L72.77 22L71.35 22L69.73 15.77L68.07 22L66.65 22ZM80.38 22L78.90 22L78.90 13.47L80.38 13.47L80.38 22ZM86.87 14.66L84.23 14.66L84.23 13.47L91.00 13.47L91.00 14.66L88.34 14.66L88.34 22L86.87 22L86.87 14.66ZM96.24 22L94.75 22L94.75 13.47L96.24 13.47L96.24 17.02L100.05 17.02L100.05 13.47L101.53 13.47L101.53 22L100.05 22L100.05 18.21L96.24 18.21L96.24 22Z" fill="#FFFFFF"/><path class="svg__text" d="M127.07 17.80L127.07 17.80Q127.07 16.55 127.67 15.55Q128.28 14.56 129.34 14.00Q130.40 13.43 131.73 13.43L131.73 13.43Q133.06 13.43 134.13 14.00Q135.19 14.56 135.80 15.55Q136.40 16.55 136.40 17.80L136.40 17.80Q136.40 19.05 135.80 20.04Q135.19 21.04 134.13 21.60Q133.07 22.17 131.73 22.17L131.73 22.17Q130.40 22.17 129.34 21.60Q128.28 21.04 127.67 20.04Q127.07 19.05 127.07 17.80ZM129.47 17.80L129.47 17.80Q129.47 18.51 129.77 19.05Q130.07 19.60 130.59 19.90Q131.10 20.20 131.73 20.20L131.73 20.20Q132.37 20.20 132.89 19.90Q133.40 19.60 133.70 19.05Q134.00 18.51 134.00 17.80L134.00 17.80Q134.00 17.09 133.70 16.54Q133.40 16 132.89 15.70Q132.37 15.40 131.73 15.40L131.73 15.40Q131.10 15.40 130.58 15.70Q130.07 16 129.77 16.54Q129.47 17.09 129.47 17.80ZM140.70 17.80L140.70 17.80Q140.70 16.54 141.30 15.54Q141.90 14.55 142.95 13.99Q144.00 13.43 145.32 13.43L145.32 13.43Q146.48 13.43 147.40 13.84Q148.32 14.25 148.94 15.02L148.94 15.02L147.43 16.39Q146.61 15.40 145.45 15.40L145.45 15.40Q144.76 15.40 144.23 15.70Q143.69 16 143.40 16.54Q143.10 17.09 143.10 17.80L143.10 17.80Q143.10 18.51 143.40 19.05Q143.69 19.60 144.23 19.90Q144.76 20.20 145.45 20.20L145.45 20.20Q146.61 20.20 147.43 19.22L147.43 19.22L148.94 20.58Q148.33 21.35 147.40 21.76Q146.48 22.17 145.32 22.17L145.32 22.17Q144.00 22.17 142.95 21.61Q141.90 21.05 141.30 20.05Q140.70 19.06 140.70 17.80ZM154.89 22L152.46 22L156.17 13.60L158.52 13.60L162.23 22L159.77 22L159.10 20.37L155.55 20.37L154.89 22ZM157.33 15.93L156.24 18.61L158.41 18.61L157.33 15.93ZM168.58 22L166.39 22L166.39 13.60L168.34 13.60L171.30 18.45L174.18 13.60L176.13 13.60L176.15 22L173.97 22L173.95 17.55L171.79 21.17L170.73 21.17L168.58 17.67L168.58 22ZM187.70 22L181.32 22L181.32 13.60L183.70 13.60L183.70 20.11L187.70 20.11L187.70 22Z" fill="#FFFFFF" x="126.31"/></svg>