<svg viewBox="0 0 906.06 243.6" xmlns="http://www.w3.org/2000/svg"><g transform="translate(-237.21 -251.4)"><path d="m404.26 278.62s30.2 11.55 49.47 49.47-48.23 60.5-48.23 60.5l-1.24-110" fill="#d13fff"/><path d="m463.18 365.36s4.76 32-18.8 67.38-76.38-12.31-76.38-12.31l95.19-55.07" fill="#d13fff"/><path d="m417.4 458.86s-25 20.47-67.5 18.37-28.56-71.91-28.56-71.91z" fill="#d13fff"/><path d="m312.37 466.88s-30.08-11.84-49-49.95 48.82-60 48.82-60l.16 110" fill="#d13fff"/><path d="m254.52 379.62s-4.38-32 19.6-67.16 76.24 13.21 76.24 13.21z" fill="#d13fff"/><path d="m302.55 285.86s25.81-19.46 68.17-15.67 25.68 73 25.68 73l-93.85-57.32" fill="#d13fff"/><path d="m578.63 362c37.45 7.92 57.85 20.64 57.85 55.45 0 31-23.76 54.24-66.73 54.24-54.72 0-66-28.32-71.76-47.76a16.73 16.73 0 0 1 -.48-3.13c0-5.28 4.08-8.87 9.12-10.08a23.63 23.63 0 0 1 4.08-.47c4.56 0 9.12 2.16 10.56 7.2 4.32 16.08 12.24 34.08 47.28 34.08 27.37 0 44.41-13.2 44.41-33.85 0-19.67-10.8-28.32-39.13-34.08l-19.2-4.08c-36-7.44-52.32-21.12-52.32-52.56 0-25.2 18.72-49.68 63.84-49.68 43.21 0 58.09 23 63.37 40.32a9.63 9.63 0 0 1 .72 3.6c0 5-4.08 8.64-8.88 9.6a21.14 21.14 0 0 1 -4.08.48c-4.32 0-8.64-1.92-10.56-7-3.84-13.68-13.93-27.12-40.57-27.12-27.84 0-40.56 13.92-40.56 29.76 0 17.28 8.4 26.16 35.28 31.44z" fill="#222"/><path d="m781.79 289.23c0-6.72 4.8-9.84 11.52-9.84s11.28 3.12 11.28 9.84v164.89c0 9.36-4.8 15.12-14.4 15.12-10.32 0-14.16-4.08-20.16-13.68l-63.6-103c-9.6-15.36-21.6-38.88-27.12-50.88 1.44 15.36 3.36 48.72 3.36 84v73.72c0 6.48-4.8 9.84-11.28 9.84-6.72 0-11.52-3.36-11.52-9.84v-165.61c0-8.88 5.76-14.4 15.12-14.4 10.8 0 14.88 4.32 19.44 11.52l60.48 98.16c11 18 24.48 43.69 30.72 57.13-1.44-14.88-3.84-49.69-3.84-84.25z" fill="#222"/><path d="m844.67 462.52a9.33 9.33 0 0 1 -9.36 6.72 16.63 16.63 0 0 1 -4.8-.72c-4.8-1.2-8.4-5.28-8.4-9.84a12.19 12.19 0 0 1 .72-4.08l65.28-163.93c3.12-8.16 9.12-11.28 16.56-11.28 7.68 0 13.92 3.12 17 11.28l65.33 164.41a8.48 8.48 0 0 1 1 4.08c0 4.8-3.84 8.4-8.64 9.6a13.59 13.59 0 0 1 -4.32.72 10 10 0 0 1 -9.84-6.72l-19-49.68h-83zm91.33-69.61-26.64-69.84a231.33 231.33 0 0 1 -7.44-22.8 199.45 199.45 0 0 1 -7.44 23l-27.12 69.6z" fill="#222"/><path d="m1028.79 459.16c0 6.72-4.8 10.08-11.28 10.08-6.72 0-11.28-3.36-11.28-10.32v-152.17c0-18.48 7.44-25.92 24.48-25.92h53.29c37.92 0 59.28 19.44 59.28 53.52 0 36-22.08 56.88-60.24 56.88h-54.24zm53.76-88.09c24.24 0 37.2-13 37.2-36.24 0-21.6-13.2-33.6-37.2-33.6h-46.08c-5.28 0-7.68 3.12-7.68 8.4v61.44z" fill="#222"/><path d="m359 294.35a78.41 78.41 0 0 1 51.86 19.53l.07.06.07.06c1.16 1 2.34 2.11 3.61 3.38s2.77 2.88 4.08 4.39a78.66 78.66 0 0 1 -110.9 110.94c-1.53-1.33-3-2.7-4.41-4.09s-2.38-2.46-3.38-3.62l-.06-.07-.06-.07a78.64 78.64 0 0 1 59.12-130.51m0-26a104.65 104.65 0 0 0 -78.64 173.65c1.47 1.7 3 3.34 4.64 5q2.82 2.82 5.81 5.39a104.66 104.66 0 0 0 147.58-147.58q-2.56-3-5.39-5.81c-1.62-1.62-3.26-3.17-5-4.64a104.28 104.28 0 0 0 -69-26z" fill="#222"/></g><path d="m193.56 5.59h44.23v43.26" fill="none" stroke="#d13fff" stroke-linecap="round" stroke-linejoin="round" stroke-width="10"/><path d="m237.79 194.37v44.23h-43.26" fill="none" stroke="#d13fff" stroke-linecap="round" stroke-linejoin="round" stroke-width="10"/><path d="m49.23 238.01h-44.23v-43.26" fill="none" stroke="#d13fff" stroke-linecap="round" stroke-linejoin="round" stroke-width="10"/><path d="m5 49.23v-44.23h43.26" fill="none" stroke="#d13fff" stroke-linecap="round" stroke-linejoin="round" stroke-width="10"/></svg>